<svg version="1.1" xmlns="http://www.w3.org/2000/svg" desc="Created with imagetracer.js version 1.2.6"  viewBox="0 0 750 750" width="48" height="48" preserveAspectRatio="xMidYMid meet"><path fill="rgb(253,140,65)" stroke="rgb(253,140,65)" stroke-width="1" opacity="1" d="M 551.5 122 L 560 122.5 L 551.5 123 L 551.5 122 Z " /><path fill="rgb(253,140,65)" stroke="rgb(253,140,65)" stroke-width="1" opacity="1" d="M 561.5 122 L 569 122.5 L 561.5 123 L 561.5 122 Z " /><path fill="rgb(253,140,65)" stroke="rgb(253,140,65)" stroke-width="1" opacity="1" d="M 545.5 123 L 549 123.5 L 538.5 127 L 538.5 126 L 545.5 123 Z " /><path fill="rgb(253,140,65)" stroke="rgb(253,140,65)" stroke-width="1" opacity="1" d="M 571.5 123 L 578.5 124 L 589 129.5 L 587.5 129 L 578.5 125 L 571.5 124 L 571.5 123 Z " /><path fill="rgb(253,140,65)" stroke="rgb(253,140,65)" stroke-width="1" opacity="1" d="M 534.5 128 L 533.5 130 L 529.5 132 L 481.5 180 L 529.5 131 L 534.5 128 Z " /><path fill="rgb(253,140,65)" stroke="rgb(253,140,65)" stroke-width="1" opacity="1" d="M 590.5 130 Q 601.8 136.7 610 146.5 Q 617.3 153.7 621 164.5 L 620 164.5 L 614 152.5 L 601.5 139 L 591.5 132 L 590.5 130 Z " /><path fill="rgb(253,140,65)" stroke="rgb(253,140,65)" stroke-width="1" opacity="1" d="M 555.5 132 L 565 132.5 L 549.5 134 L 549.5 133 Q 554.3 134.2 555.5 132 Z " /><path fill="rgb(253,140,65)" stroke="rgb(253,140,65)" stroke-width="1" opacity="1" d="M 568.5 133 L 571 133.5 L 568.5 134 L 568.5 133 Z " /><path fill="rgb(253,140,65)" stroke="rgb(253,140,65)" stroke-width="1" opacity="1" d="M 572.5 134 L 575 134.5 L 572.5 135 L 572.5 134 Z " /><path fill="rgb(253,140,65)" stroke="rgb(253,140,65)" stroke-width="1" opacity="1" d="M 543.5 135 L 545 135.5 L 538.5 139 L 539.5 137 L 543.5 135 Z " /><path fill="rgb(253,140,65)" stroke="rgb(253,140,65)" stroke-width="1" opacity="1" d="M 576.5 135 L 582 137.5 L 580.5 138 L 576.5 136 L 576.5 135 Z " /><path fill="rgb(253,140,65)" stroke="rgb(253,140,65)" stroke-width="1" opacity="1" d="M 583.5 138 L 595 146.5 L 592.5 145 L 584.5 140 L 583.5 138 Z " /><path fill="rgb(253,140,65)" stroke="rgb(253,140,65)" stroke-width="1" opacity="1" d="M 531.5 144 L 495.5 181 L 495 179 L 496.5 179 L 531.5 144 Z " /><path fill="rgb(253,140,65)" stroke="rgb(253,140,65)" stroke-width="1" opacity="1" d="M 445.5 147 L 449 147.5 L 445.5 148 L 413.5 179 L 431.5 160 L 445.5 147 Z " /><path fill="rgb(253,140,65)" stroke="rgb(253,140,65)" stroke-width="1" opacity="1" d="M 450.5 148 L 475.5 174 L 450.5 148 Z " /><path fill="rgb(253,140,65)" stroke="rgb(253,140,65)" stroke-width="1" opacity="1" d="M 595.5 148 L 603 154 L 608 161.5 L 605 159.5 L 595.5 148 Z " /><path fill="rgb(253,140,65)" stroke="rgb(253,140,65)" stroke-width="1" opacity="1" d="M 446.5 160 L 484 196.5 L 447.5 161 L 425 182.5 L 476 234.5 L 424 183.5 L 446.5 160 Z " /><path fill="rgb(253,140,65)" stroke="rgb(253,140,65)" stroke-width="1" opacity="1" d="M 608.5 163 L 611 167.5 L 610 167.5 L 608.5 163 Z " /><path fill="rgb(253,140,65)" stroke="rgb(253,140,65)" stroke-width="1" opacity="1" d="M 623.5 171 L 624 173.5 L 623 173.5 L 623.5 171 Z " /><path fill="rgb(253,140,65)" stroke="rgb(253,140,65)" stroke-width="1" opacity="1" d="M 624.5 175 L 626 181.5 L 626 191.5 L 625 191.5 L 624.5 175 Z " /><path fill="rgb(253,140,65)" stroke="rgb(253,140,65)" stroke-width="1" opacity="1" d="M 614.5 179 L 615 195.5 L 613.5 200 L 613 196.5 L 614 195.5 L 614.5 179 Z " /><path fill="rgb(253,140,65)" stroke="rgb(253,140,65)" stroke-width="1" opacity="1" d="M 492.5 182 L 493 183.5 L 489 187.5 L 532.5 232 L 488 186.5 L 492.5 182 Z " /><path fill="rgb(253,140,65)" stroke="rgb(253,140,65)" stroke-width="1" opacity="1" d="M 412.5 183 L 413 185.5 L 421 194.5 L 418 192.5 L 412 185.5 L 412.5 183 Z " /><path fill="rgb(253,140,65)" stroke="rgb(253,140,65)" stroke-width="1" opacity="1" d="M 624.5 194 L 625 198.5 L 624 198.5 L 624.5 194 Z " /><path fill="rgb(253,140,65)" stroke="rgb(253,140,65)" stroke-width="1" opacity="1" d="M 485.5 199 L 489.5 204 L 485.5 199 Z " /><path fill="rgb(253,140,65)" stroke="rgb(253,140,65)" stroke-width="1" opacity="1" d="M 426.5 200 L 475.5 250 L 426.5 200 Z " /><path fill="rgb(253,140,65)" stroke="rgb(253,140,65)" stroke-width="1" opacity="1" d="M 621.5 207 L 622 208.5 L 618.5 214 L 619 212.5 L 621.5 207 Z " /><path fill="rgb(253,140,65)" stroke="rgb(253,140,65)" stroke-width="1" opacity="1" d="M 608.5 210 L 572.5 247 L 569.5 249 L 558.5 259 L 543.5 243 L 559.5 258 L 576 242.5 L 582.5 235 L 608.5 210 Z " /><path fill="rgb(253,140,65)" stroke="rgb(253,140,65)" stroke-width="1" opacity="1" d="M 500.5 214 L 539.5 254 L 500.5 214 Z " /><path fill="rgb(253,140,65)" stroke="rgb(253,140,65)" stroke-width="1" opacity="1" d="M 617.5 215 L 616.5 217 L 617.5 215 Z " /><path fill="rgb(253,140,65)" stroke="rgb(253,140,65)" stroke-width="1" opacity="1" d="M 615.5 218 L 585.5 249 L 567 266.5 L 590.5 291 L 566 266.5 L 590.5 242 L 615.5 218 Z " /><path fill="rgb(253,140,65)" stroke="rgb(253,140,65)" stroke-width="1" opacity="1" d="M 430.5 226 L 433 226.5 L 430.5 227 L 384.5 273 L 430.5 226 Z " /><path fill="rgb(253,140,65)" stroke="rgb(253,140,65)" stroke-width="1" opacity="1" d="M 435.5 226 L 439 228.5 L 436.5 227 L 435.5 226 Z " /><path fill="rgb(253,140,65)" stroke="rgb(253,140,65)" stroke-width="1" opacity="1" d="M 439.5 230 L 440 232.5 L 414.5 259 L 296 374.5 Q 296.8 376.8 294.5 376 L 231.5 438 L 254.5 414 L 438 234.5 L 439.5 230 Z " /><path fill="rgb(253,140,65)" stroke="rgb(253,140,65)" stroke-width="1" opacity="1" d="M 477.5 237 L 504 262.5 L 562.5 323 L 585 300.5 L 545.5 260 L 586 301.5 L 562.5 324 L 477.5 237 Z " /><path fill="rgb(253,140,65)" stroke="rgb(253,140,65)" stroke-width="1" opacity="1" d="M 476.5 251 L 534 309.5 L 531 307.5 L 476.5 251 Z " /><path fill="rgb(253,140,65)" stroke="rgb(253,140,65)" stroke-width="1" opacity="1" d="M 370.5 285 L 326.5 330 L 370.5 285 Z " /><path fill="rgb(253,140,65)" stroke="rgb(253,140,65)" stroke-width="1" opacity="1" d="M 596.5 297 Q 599.5 297.5 599 301.5 L 598 301.5 L 596.5 297 Z " /><path fill="rgb(253,140,65)" stroke="rgb(253,140,65)" stroke-width="1" opacity="1" d="M 597.5 303 L 598 304.5 L 564.5 336 L 564.5 335 L 597.5 303 Z " /><path fill="rgb(253,140,65)" stroke="rgb(253,140,65)" stroke-width="1" opacity="1" d="M 514.5 308 L 516 308.5 L 512.5 310 L 382.5 438 L 430.5 389 L 507 314.5 L 508.5 312 L 514.5 308 Z " /><path fill="rgb(253,140,65)" stroke="rgb(253,140,65)" stroke-width="1" opacity="1" d="M 517.5 309 L 520 310.5 L 521 316.5 L 518.5 320 L 470.5 367 L 517.5 319 Q 519.8 319.8 519 317.5 L 520 312.5 L 519 310 L 517.5 309 Z " /><path fill="rgb(253,140,65)" stroke="rgb(253,140,65)" stroke-width="1" opacity="1" d="M 540.5 316 L 559.5 335 L 563 336.5 L 561.5 337 L 540.5 316 Z " /><path fill="rgb(253,140,65)" stroke="rgb(253,140,65)" stroke-width="1" opacity="1" d="M 321.5 333 L 268.5 387 L 321.5 333 Z " /><path fill="rgb(253,140,65)" stroke="rgb(253,140,65)" stroke-width="1" opacity="1" d="M 458.5 377 L 404.5 432 L 458.5 377 Z " /><path fill="rgb(253,140,65)" stroke="rgb(253,140,65)" stroke-width="1" opacity="1" d="M 255.5 398 L 209.5 445 L 255.5 398 Z " /><path fill="rgb(253,140,65)" stroke="rgb(253,140,65)" stroke-width="1" opacity="1" d="M 401.5 433 L 355.5 480 L 401.5 433 Z " /><path fill="rgb(253,140,65)" stroke="rgb(253,140,65)" stroke-width="1" opacity="1" d="M 206.5 446 L 200.5 453 L 206.5 446 Z " /><path fill="rgb(253,140,65)" stroke="rgb(253,140,65)" stroke-width="1" opacity="1" d="M 198.5 454 L 160 493.5 L 153.5 508 L 153 505.5 L 159 493.5 L 198.5 454 Z " /><path fill="rgb(253,140,65)" stroke="rgb(253,140,65)" stroke-width="1" opacity="1" d="M 342.5 491 L 289.5 545 L 342.5 491 Z " /><path fill="rgb(253,140,65)" stroke="rgb(253,140,65)" stroke-width="1" opacity="1" d="M 152.5 509 L 153 512.5 L 152 512.5 L 152.5 509 Z " /><path fill="rgb(253,140,65)" stroke="rgb(253,140,65)" stroke-width="1" opacity="1" d="M 150.5 519 L 151 522.5 L 150 522.5 L 150.5 519 Z " /><path fill="rgb(253,140,65)" stroke="rgb(253,140,65)" stroke-width="1" opacity="1" d="M 149.5 532 L 150 535.5 L 149 535.5 L 149.5 532 Z " /><path fill="rgb(253,140,65)" stroke="rgb(253,140,65)" stroke-width="1" opacity="1" d="M 150.5 541 L 151 549.5 L 150 549.5 L 150.5 541 Z " /><path fill="rgb(253,140,65)" stroke="rgb(253,140,65)" stroke-width="1" opacity="1" d="M 284.5 548 L 250.5 583 L 245.5 586 L 246.5 584 L 250.5 582 L 284.5 548 Z " /><path fill="rgb(253,140,65)" stroke="rgb(253,140,65)" stroke-width="1" opacity="1" d="M 150.5 561 L 151 563.5 L 150 563.5 L 150.5 561 Z " /><path fill="rgb(253,140,65)" stroke="rgb(253,140,65)" stroke-width="1" opacity="1" d="M 145.5 574 L 144 576.5 L 141.5 580 Q 139.3 579.3 140 581.5 L 139 586.5 L 155.5 603 L 159 603.5 L 155.5 604 L 138 586.5 L 138 582.5 L 140.5 579 L 143 577.5 L 145.5 574 Z " /><path fill="rgb(253,140,65)" stroke="rgb(253,140,65)" stroke-width="1" opacity="1" d="M 238.5 588 L 240 588.5 L 235.5 590 L 235.5 589 L 238.5 588 Z " /><path fill="rgb(253,140,65)" stroke="rgb(253,140,65)" stroke-width="1" opacity="1" d="M 230.5 590 L 234 590.5 L 230.5 591 L 230.5 590 Z " /><path fill="rgb(253,140,65)" stroke="rgb(253,140,65)" stroke-width="1" opacity="1" d="M 180.5 591 L 193 591.5 L 180.5 592 L 180.5 591 Z " /><path fill="rgb(253,140,65)" stroke="rgb(253,140,65)" stroke-width="1" opacity="1" d="M 225.5 591 L 229 591.5 Q 224.9 593.9 217.5 593 L 217.5 592 Q 223.8 593.8 225.5 591 Z " /><path fill="rgb(253,140,65)" stroke="rgb(253,140,65)" stroke-width="1" opacity="1" d="M 176.5 592 L 179 592.5 L 176.5 593 L 176.5 592 Z " /><path fill="rgb(253,140,65)" stroke="rgb(253,140,65)" stroke-width="1" opacity="1" d="M 198.5 592 L 205 592.5 L 198.5 593 L 198.5 592 Z " /><path fill="rgb(253,140,65)" stroke="rgb(253,140,65)" stroke-width="1" opacity="1" d="M 173.5 593 L 175 593.5 L 171.5 595 L 171.5 594 L 173.5 593 Z " /><path fill="rgb(253,140,65)" stroke="rgb(253,140,65)" stroke-width="1" opacity="1" d="M 167.5 596 L 165.5 599 L 160.5 603 L 164.5 598 L 167.5 596 Z " /><path fill="rgb(255,118,27)" stroke="rgb(255,118,27)" stroke-width="1" opacity="1" d="M 30.5 3 L 719.5 3 Q 731.9 6.1 739 14.5 L 747 30.5 L 747 719.5 Q 743.9 731.9 735.5 739 L 719.5 747 L 30.5 747 Q 18.1 743.9 11 735.5 L 3 719.5 L 3 30.5 Q 6.1 18.1 14.5 11 L 30.5 3 Z M 552 122 L 543 124 L 530 131 L 481 179 L 476 174 L 449 147 L 446 147 L 432 160 L 412 181 L 412 186 L 421 195 L 424 197 L 531 308 L 535 310 L 540 317 L 562 337 L 566 336 L 597 306 L 599 302 L 599 300 L 591 291 L 567 267 L 586 249 L 616 219 L 622 209 L 626 192 L 626 182 L 623 169 Q 618 156 610 147 Q 599 134 584 126 L 569 122 L 552 122 Z M 431 226 L 200 453 Q 201 455 199 454 L 157 497 L 152 510 Q 153 516 150 520 L 150 530 L 150 532 L 149 536 L 149 538 L 150 539 L 150 550 L 150 552 L 151 554 Q 151 570 143 578 L 141 579 L 138 583 L 138 587 L 156 604 L 161 603 L 171 595 L 180 592 L 198 592 L 199 593 L 225 593 L 238 590 L 251 583 L 519 320 L 521 317 L 520 311 L 516 308 L 509 312 L 507 315 L 382 438 L 232 438 L 295 376 Q 297 377 296 375 L 415 259 L 440 233 L 439 229 Q 438 225 431 226 Z " /><path fill="rgb(255,118,27)" stroke="rgb(255,118,27)" stroke-width="1" opacity="1" d="M 555.5 133 L 567.5 133 L 575.5 135 Q 587.4 139.1 595 147.5 L 608 162.5 L 612 170.5 Q 616 180 614 195.5 L 609 209.5 L 583.5 235 L 576 241.5 L 572.5 246 L 558.5 258 L 489 187.5 L 494.5 181 L 537.5 139 L 545.5 135 L 555.5 133 Z " /><path fill="rgb(255,118,27)" stroke="rgb(255,118,27)" stroke-width="1" opacity="1" d="M 446.5 161 L 485 198.5 L 489.5 204 L 500 213.5 L 585 300.5 L 562.5 323 L 540 300.5 L 493.5 252 L 476 235.5 L 425 182.5 L 446.5 161 Z " /><path fill="rgb(15,5,0)" stroke="rgb(15,5,0)" stroke-width="1" opacity="0.00784313725490196" d="M 0 0 L 26 0.5 Q 13 4.5 6 14.5 L 0.5 26 L 0 0 Z " /><path fill="rgb(15,5,0)" stroke="rgb(15,5,0)" stroke-width="1" opacity="0.00784313725490196" d="M 724.5 0 L 750 0 L 750 25.5 L 749 25.5 Q 745.3 12.7 735.5 6 L 724.5 1 L 724.5 0 Z " /><path fill="rgb(15,5,0)" stroke="rgb(15,5,0)" stroke-width="1" opacity="0.00784313725490196" d="M 0.5 724 Q 4.5 737 14.5 744 L 23.5 749 L 27 749.5 L 0 750 L 0.5 724 Z " /><path fill="rgb(15,5,0)" stroke="rgb(15,5,0)" stroke-width="1" opacity="0.00784313725490196" d="M 749.5 724 L 750 750 L 724 749.5 Q 737.2 745.7 744 735.5 L 749.5 724 Z " /><path fill="rgb(233,92,0)" stroke="rgb(233,92,0)" stroke-width="1" opacity="0.9607843137254902" d="M 30.5 1 L 719.5 1 Q 733.5 4 741 13.5 Q 746.9 20.1 749 30.5 L 749 719.5 Q 746 733.5 736.5 741 Q 729.9 746.9 719.5 749 L 30.5 749 Q 16.5 746 9 736.5 Q 3.1 729.9 1 719.5 L 1 30.5 Q 4 16.5 13.5 9 Q 20.1 3.1 30.5 1 Z M 31 3 L 15 11 Q 6 18 3 31 L 3 720 L 11 736 Q 18 744 31 747 L 720 747 L 736 739 Q 744 732 747 720 L 747 31 L 739 15 Q 732 6 720 3 L 31 3 Z " /><path fill="rgb(228,89,0)" stroke="rgb(228,89,0)" stroke-width="1" opacity="0.9215686274509803" d="M 26.5 0 L 723.5 0 Q 736.7 4.3 744 14.5 L 750 26.5 L 750 723.5 Q 746 736 736.5 743 L 723.5 750 L 27.5 750 Q 13.4 746.1 6 735.5 L 0 723.5 L 0 26.5 Q 4.3 13.3 14.5 6 L 26.5 0 Z M 31 1 Q 20 3 14 9 Q 4 17 1 31 L 1 720 Q 3 730 9 737 Q 17 746 31 749 L 720 749 Q 730 747 737 741 Q 746 733 749 720 L 749 31 Q 747 20 741 14 Q 733 4 720 1 L 31 1 Z " /><path fill="rgb(254,252,251)" stroke="rgb(254,252,251)" stroke-width="1" opacity="1" d="M 560.5 122 L 561.5 123 L 570.5 123 L 583.5 127 Q 598.1 133.9 608 145.5 Q 617 154.5 622 167.5 L 625 181.5 L 625 193.5 L 622 206.5 L 616 217.5 L 591.5 242 L 566 266.5 L 596 296.5 Q 598.6 297.9 598 302.5 L 565.5 335 L 561.5 336 L 534 309.5 L 420 193.5 L 413 185.5 L 412 181.5 L 427.5 165 L 445.5 148 L 449.5 148 L 481.5 180 L 529.5 132 L 545.5 124 L 559.5 123 L 560.5 122 Z M 556 132 L 540 137 L 497 179 Q 494 178 495 181 L 488 187 L 559 259 L 570 249 L 573 247 L 609 211 L 615 196 L 615 180 L 613 172 L 607 160 L 603 156 Q 604 153 602 154 L 595 147 Q 588 139 578 135 L 565 132 L 556 132 Z M 447 160 L 424 183 L 563 324 L 586 302 L 484 197 L 447 160 Z " /><path fill="rgb(254,252,251)" stroke="rgb(254,252,251)" stroke-width="1" opacity="1" d="M 433.5 226 L 439 229.5 Q 438.6 237.6 432.5 240 L 231 437.5 L 382.5 438 L 512.5 310 L 516.5 309 L 519 310 L 520 316.5 L 519 319 L 517.5 319 L 250.5 582 L 234.5 590 L 224.5 592 L 217.5 592 L 216.5 593 L 205.5 593 L 204.5 592 L 193.5 592 L 192.5 591 L 180.5 591 Q 166.9 593.9 159.5 603 L 155.5 603 L 139 586.5 L 139 582.5 L 140 580 L 144 577.5 L 151 563.5 L 151 541.5 L 150 540.5 L 150 523.5 L 153 508.5 L 160 493.5 L 208.5 445 L 430.5 227 L 433.5 226 Z " /></svg>