<svg width="48" height="48" viewBox="0 0 750 750" preserveAspectRatio="xMidYMid meet" version="1.1" xmlns="http://www.w3.org/2000/svg" aria-hidden="true"><path fill="rgb(252,130,48)" stroke="rgb(252,130,48)" stroke-width="1" opacity="1" d="M 411.5 91 L 420.5 101 L 411.5 91 Z " /><path fill="rgb(252,130,48)" stroke="rgb(252,130,48)" stroke-width="1" opacity="1" d="M 403.5 92 L 404 93.5 L 173 323.5 L 403.5 92 Z " /><path fill="rgb(252,130,48)" stroke="rgb(252,130,48)" stroke-width="1" opacity="1" d="M 421.5 102 L 426.5 108 L 421.5 102 Z " /><path fill="rgb(252,130,48)" stroke="rgb(252,130,48)" stroke-width="1" opacity="1" d="M 407.5 105 L 409 105.5 L 407 106 L 404.5 110 Q 402.3 109.3 403 111.5 L 386 127.5 L 383.5 131 L 326.5 187 L 407.5 105 Z " /><path fill="rgb(252,130,48)" stroke="rgb(252,130,48)" stroke-width="1" opacity="1" d="M 410.5 107 L 424 121.5 L 413 111.5 L 410.5 107 Z " /><path fill="rgb(252,130,48)" stroke="rgb(252,130,48)" stroke-width="1" opacity="1" d="M 427.5 109 L 451 134.5 L 445 129.5 L 427.5 109 Z " /><path fill="rgb(252,130,48)" stroke="rgb(252,130,48)" stroke-width="1" opacity="1" d="M 424.5 123 L 430.5 130 L 424.5 123 Z " /><path fill="rgb(252,130,48)" stroke="rgb(252,130,48)" stroke-width="1" opacity="1" d="M 434.5 134 L 490 195.5 L 481 187.5 L 437 138.5 L 434.5 134 Z " /><path fill="rgb(252,130,48)" stroke="rgb(252,130,48)" stroke-width="1" opacity="1" d="M 454.5 139 L 460.5 146 L 454.5 139 Z " /><path fill="rgb(252,130,48)" stroke="rgb(252,130,48)" stroke-width="1" opacity="1" d="M 461.5 147 L 486 173.5 L 479 167.5 L 461.5 147 Z " /><path fill="rgb(252,130,48)" stroke="rgb(252,130,48)" stroke-width="1" opacity="1" d="M 487.5 176 L 494.5 184 L 487.5 176 Z " /><path fill="rgb(252,130,48)" stroke="rgb(252,130,48)" stroke-width="1" opacity="1" d="M 514.5 181 L 528 181.5 L 514.5 182 L 514.5 181 Z " /><path fill="rgb(252,130,48)" stroke="rgb(252,130,48)" stroke-width="1" opacity="1" d="M 504.5 182 L 509 182.5 L 504.5 183 L 504.5 182 Z " /><path fill="rgb(252,130,48)" stroke="rgb(252,130,48)" stroke-width="1" opacity="1" d="M 496.5 183 L 501 183.5 L 496.5 184 L 496.5 183 Z " /><path fill="rgb(252,130,48)" stroke="rgb(252,130,48)" stroke-width="1" opacity="1" d="M 534.5 183 L 543 190.5 L 542.5 193 L 542 190.5 L 535.5 184 L 534.5 183 Z " /><path fill="rgb(252,130,48)" stroke="rgb(252,130,48)" stroke-width="1" opacity="1" d="M 399.5 193 L 403 193.5 L 395.5 196 L 396.5 194 L 399.5 193 Z " /><path fill="rgb(252,130,48)" stroke="rgb(252,130,48)" stroke-width="1" opacity="1" d="M 408.5 193 L 411 193.5 L 408.5 194 L 408.5 193 Z " /><path fill="rgb(252,130,48)" stroke="rgb(252,130,48)" stroke-width="1" opacity="1" d="M 511.5 193 L 516 193.5 L 511.5 194 L 511.5 193 Z " /><path fill="rgb(252,130,48)" stroke="rgb(252,130,48)" stroke-width="1" opacity="1" d="M 526.5 193 L 529 193.5 L 526.5 194 L 526.5 193 Z " /><path fill="rgb(252,130,48)" stroke="rgb(252,130,48)" stroke-width="1" opacity="1" d="M 412.5 194 Q 419.7 195.8 423 201.5 L 424 203.5 L 422 202.5 L 417.5 197 L 412.5 195 L 412.5 194 Z " /><path fill="rgb(252,130,48)" stroke="rgb(252,130,48)" stroke-width="1" opacity="1" d="M 504 194 L 506 194.5 L 505 195.5 L 510.5 202 L 504 194 Z " /><path fill="rgb(252,130,48)" stroke="rgb(252,130,48)" stroke-width="1" opacity="1" d="M 530.5 194 Q 533.8 195.8 530 197.5 L 527.5 201 L 519.5 207 L 521.5 204 L 531 195.5 L 530.5 194 Z " /><path fill="rgb(252,130,48)" stroke="rgb(252,130,48)" stroke-width="1" opacity="1" d="M 393.5 196 L 388 202.5 L 387.5 204 L 387 202.5 L 393.5 196 Z " /><path fill="rgb(252,130,48)" stroke="rgb(252,130,48)" stroke-width="1" opacity="1" d="M 542.5 197 L 543 199.5 L 541.5 202 L 541 200.5 L 542.5 197 Z " /><path fill="rgb(252,130,48)" stroke="rgb(252,130,48)" stroke-width="1" opacity="1" d="M 492.5 199 L 505 212.5 L 503 213 L 492.5 199 Z " /><path fill="rgb(252,130,48)" stroke="rgb(252,130,48)" stroke-width="1" opacity="1" d="M 512.5 204 L 518 207.5 L 515.5 208 L 512.5 204 Z " /><path fill="rgb(252,130,48)" stroke="rgb(252,130,48)" stroke-width="1" opacity="1" d="M 539.5 204 L 539 205.5 L 535.5 210 L 532.5 212 L 539.5 204 Z " /><path fill="rgb(252,130,48)" stroke="rgb(252,130,48)" stroke-width="1" opacity="1" d="M 424.5 205 L 426 210.5 L 425 210.5 L 424.5 205 Z " /><path fill="rgb(252,130,48)" stroke="rgb(252,130,48)" stroke-width="1" opacity="1" d="M 385.5 207 L 386 209.5 L 385 209.5 L 385.5 207 Z " /><path fill="rgb(252,130,48)" stroke="rgb(252,130,48)" stroke-width="1" opacity="1" d="M 305.5 208 L 223.5 291 L 305.5 208 Z " /><path fill="rgb(252,130,48)" stroke="rgb(252,130,48)" stroke-width="1" opacity="1" d="M 529.5 213 L 528.5 215 L 529.5 213 Z " /><path fill="rgb(252,130,48)" stroke="rgb(252,130,48)" stroke-width="1" opacity="1" d="M 490.5 215 L 493 215.5 L 490.5 216 L 490.5 215 Z " /><path fill="rgb(252,130,48)" stroke="rgb(252,130,48)" stroke-width="1" opacity="1" d="M 526.5 215 L 525 217.5 L 529 221.5 L 542 236.5 L 537 232.5 L 524 217.5 L 526.5 215 Z " /><path fill="rgb(252,130,48)" stroke="rgb(252,130,48)" stroke-width="1" opacity="1" d="M 425.5 216 L 426 219.5 L 424.5 222 L 424 220.5 L 425.5 216 Z " /><path fill="rgb(252,130,48)" stroke="rgb(252,130,48)" stroke-width="1" opacity="1" d="M 483.5 216 L 487 216.5 L 483.5 217 L 483.5 216 Z " /><path fill="rgb(252,130,48)" stroke="rgb(252,130,48)" stroke-width="1" opacity="1" d="M 437.5 217 L 441 217.5 L 437 218 L 436.5 222 L 436 218.5 L 437.5 217 Z " /><path fill="rgb(252,130,48)" stroke="rgb(252,130,48)" stroke-width="1" opacity="1" d="M 473.5 217 L 480 217.5 L 473.5 218 L 473.5 217 Z " /><path fill="rgb(252,130,48)" stroke="rgb(252,130,48)" stroke-width="1" opacity="1" d="M 449.5 218 L 459 218.5 L 449.5 219 L 449.5 218 Z " /><path fill="rgb(252,130,48)" stroke="rgb(252,130,48)" stroke-width="1" opacity="1" d="M 386.5 221 L 390 226.5 L 387 224.5 L 386.5 221 Z " /><path fill="rgb(252,130,48)" stroke="rgb(252,130,48)" stroke-width="1" opacity="1" d="M 513.5 222 L 515.5 225 L 513.5 222 Z " /><path fill="rgb(252,130,48)" stroke="rgb(252,130,48)" stroke-width="1" opacity="1" d="M 422.5 225 L 416.5 232 L 413.5 233 L 413.5 232 Q 420 230.5 422.5 225 Z " /><path fill="rgb(252,130,48)" stroke="rgb(252,130,48)" stroke-width="1" opacity="1" d="M 499.5 225 L 502 225.5 L 499.5 226 L 499.5 225 Z " /><path fill="rgb(252,130,48)" stroke="rgb(252,130,48)" stroke-width="1" opacity="1" d="M 494.5 226 L 497 226.5 L 494.5 227 L 494.5 226 Z " /><path fill="rgb(252,130,48)" stroke="rgb(252,130,48)" stroke-width="1" opacity="1" d="M 516.5 226 L 522.5 233 L 516.5 226 Z " /><path fill="rgb(252,130,48)" stroke="rgb(252,130,48)" stroke-width="1" opacity="1" d="M 435.5 227 L 436 229 L 448 229.5 L 436.5 230 L 435.5 227 Z " /><path fill="rgb(252,130,48)" stroke="rgb(252,130,48)" stroke-width="1" opacity="1" d="M 488.5 227 L 492 227.5 L 488.5 228 L 488.5 227 Z " /><path fill="rgb(252,130,48)" stroke="rgb(252,130,48)" stroke-width="1" opacity="1" d="M 481.5 228 L 487 228.5 L 481.5 229 L 481.5 228 Z " /><path fill="rgb(252,130,48)" stroke="rgb(252,130,48)" stroke-width="1" opacity="1" d="M 392.5 229 L 397 232.5 L 395.5 232 L 392.5 229 Z " /><path fill="rgb(252,130,48)" stroke="rgb(252,130,48)" stroke-width="1" opacity="1" d="M 460.5 229 L 478 229.5 L 460.5 230 L 460.5 229 Z " /><path fill="rgb(252,130,48)" stroke="rgb(252,130,48)" stroke-width="1" opacity="1" d="M 403.5 234 L 407 234.5 L 403.5 235 L 403.5 234 Z " /><path fill="rgb(252,130,48)" stroke="rgb(252,130,48)" stroke-width="1" opacity="1" d="M 526.5 237 L 549 261.5 L 539 252.5 L 526.5 237 Z " /><path fill="rgb(252,130,48)" stroke="rgb(252,130,48)" stroke-width="1" opacity="1" d="M 546.5 242 L 578 276.5 L 571 270.5 L 546.5 242 Z " /><path fill="rgb(252,130,48)" stroke="rgb(252,130,48)" stroke-width="1" opacity="1" d="M 549.5 263 L 582 298.5 L 573 290.5 L 549.5 263 Z " /><path fill="rgb(252,130,48)" stroke="rgb(252,130,48)" stroke-width="1" opacity="1" d="M 579.5 279 L 603 304.5 L 595 297.5 L 579.5 279 Z " /><path fill="rgb(252,130,48)" stroke="rgb(252,130,48)" stroke-width="1" opacity="1" d="M 584.5 302 L 608 327.5 L 596 316.5 L 584.5 302 Z " /><path fill="rgb(252,130,48)" stroke="rgb(252,130,48)" stroke-width="1" opacity="1" d="M 604.5 307 L 610.5 314 L 604.5 307 Z " /><path fill="rgb(252,130,48)" stroke="rgb(252,130,48)" stroke-width="1" opacity="1" d="M 203.5 310 L 152.5 362 L 203.5 310 Z " /><path fill="rgb(252,130,48)" stroke="rgb(252,130,48)" stroke-width="1" opacity="1" d="M 611.5 315 L 635 340.5 L 629 335.5 L 611.5 315 Z " /><path fill="rgb(252,130,48)" stroke="rgb(252,130,48)" stroke-width="1" opacity="1" d="M 608.5 329 L 614.5 336 L 608.5 329 Z " /><path fill="rgb(252,130,48)" stroke="rgb(252,130,48)" stroke-width="1" opacity="1" d="M 161.5 335 L 160.5 337 L 161.5 335 Z " /><path fill="rgb(252,130,48)" stroke="rgb(252,130,48)" stroke-width="1" opacity="1" d="M 617.5 339 L 638 361.5 L 631 355.5 L 617.5 339 Z " /><path fill="rgb(252,130,48)" stroke="rgb(252,130,48)" stroke-width="1" opacity="1" d="M 156.5 340 L 138 359.5 L 136.5 364 L 136 361.5 L 156.5 340 Z " /><path fill="rgb(252,130,48)" stroke="rgb(252,130,48)" stroke-width="1" opacity="1" d="M 637.5 344 L 665 373.5 L 666 376.5 L 664 375.5 L 664 373.5 L 637.5 344 Z " /><path fill="rgb(252,130,48)" stroke="rgb(252,130,48)" stroke-width="1" opacity="1" d="M 166.5 361 L 264 361.5 L 166.5 362 L 166.5 361 Z " /><path fill="rgb(252,130,48)" stroke="rgb(252,130,48)" stroke-width="1" opacity="1" d="M 531.5 361 L 629 361.5 L 531.5 362 L 531.5 361 Z " /><path fill="rgb(252,130,48)" stroke="rgb(252,130,48)" stroke-width="1" opacity="1" d="M 137.5 366 L 143 370.5 L 140.5 369 L 137.5 366 Z " /><path fill="rgb(252,130,48)" stroke="rgb(252,130,48)" stroke-width="1" opacity="1" d="M 144.5 371 L 149.5 377 L 144.5 371 Z " /><path fill="rgb(252,130,48)" stroke="rgb(252,130,48)" stroke-width="1" opacity="1" d="M 151.5 377 L 155.5 382 L 151.5 377 Z " /><path fill="rgb(252,130,48)" stroke="rgb(252,130,48)" stroke-width="1" opacity="1" d="M 665.5 378 L 666 382.5 L 665 382.5 L 665.5 378 Z " /><path fill="rgb(252,130,48)" stroke="rgb(252,130,48)" stroke-width="1" opacity="1" d="M 157.5 382 L 170 393.5 L 166.5 391 L 157.5 382 Z " /><path fill="rgb(252,130,48)" stroke="rgb(252,130,48)" stroke-width="1" opacity="1" d="M 665.5 391 L 666 395.5 L 665 395.5 L 665.5 391 Z " /><path fill="rgb(252,130,48)" stroke="rgb(252,130,48)" stroke-width="1" opacity="1" d="M 172.5 395 L 186 407.5 L 180.5 403 L 172.5 395 Z " /><path fill="rgb(252,130,48)" stroke="rgb(252,130,48)" stroke-width="1" opacity="1" d="M 664.5 398 L 665 400.5 L 664 400.5 L 664.5 398 Z " /><path fill="rgb(252,130,48)" stroke="rgb(252,130,48)" stroke-width="1" opacity="1" d="M 662.5 405 L 663 406.5 L 661.5 409 L 661 407.5 L 662.5 405 Z " /><path fill="rgb(252,130,48)" stroke="rgb(252,130,48)" stroke-width="1" opacity="1" d="M 188.5 409 L 222 438.5 L 219.5 437 L 194.5 416 L 188.5 409 Z " /><path fill="rgb(252,130,48)" stroke="rgb(252,130,48)" stroke-width="1" opacity="1" d="M 660.5 410 L 661 411.5 L 659 412.5 L 660.5 410 Z " /><path fill="rgb(252,130,48)" stroke="rgb(252,130,48)" stroke-width="1" opacity="1" d="M 138.5 416 Q 141.8 414.9 141 417.5 L 162 458.5 L 173 484.5 L 176 493.5 L 177 501.5 L 179 504.5 L 179 526.5 L 174 540.5 L 164.5 551 L 158.5 554 L 158.5 553 Q 165.3 550.8 169 545.5 L 175 535.5 Q 175 529.5 178 526.5 L 178 504.5 L 176 501.5 L 175 493.5 Q 172 490.5 172 484.5 L 165 467.5 L 139.5 417 L 136 419.5 L 112 467.5 L 100.5 500 L 100 498.5 L 105 481.5 L 117 456.5 L 118 451.5 L 136.5 417 L 138.5 416 Z " /><path fill="rgb(252,130,48)" stroke="rgb(252,130,48)" stroke-width="1" opacity="1" d="M 657.5 416 L 658 417.5 L 656 418.5 L 657.5 416 Z " /><path fill="rgb(252,130,48)" stroke="rgb(252,130,48)" stroke-width="1" opacity="1" d="M 655.5 420 L 655 421.5 L 644.5 436 L 647 432.5 L 655.5 420 Z " /><path fill="rgb(252,130,48)" stroke="rgb(252,130,48)" stroke-width="1" opacity="1" d="M 643.5 437 L 643 438.5 L 634.5 449 L 637 445.5 L 643.5 437 Z " /><path fill="rgb(252,130,48)" stroke="rgb(252,130,48)" stroke-width="1" opacity="1" d="M 225.5 441 L 239 453.5 L 233.5 449 L 225.5 441 Z " /><path fill="rgb(252,130,48)" stroke="rgb(252,130,48)" stroke-width="1" opacity="1" d="M 631.5 452 L 631 453.5 L 596.5 493 L 605 483.5 L 631.5 452 Z " /><path fill="rgb(252,130,48)" stroke="rgb(252,130,48)" stroke-width="1" opacity="1" d="M 241.5 455 L 261 472.5 L 256.5 469 Q 246.9 462.8 241.5 455 Z " /><path fill="rgb(252,130,48)" stroke="rgb(252,130,48)" stroke-width="1" opacity="1" d="M 262.5 473 L 275 484.5 L 272.5 483 L 262.5 473 Z " /><path fill="rgb(252,130,48)" stroke="rgb(252,130,48)" stroke-width="1" opacity="1" d="M 278.5 487 L 292 499.5 L 285.5 494 L 278.5 487 Z " /><path fill="rgb(252,130,48)" stroke="rgb(252,130,48)" stroke-width="1" opacity="1" d="M 595.5 494 L 581.5 509 L 595.5 494 Z " /><path fill="rgb(252,130,48)" stroke="rgb(252,130,48)" stroke-width="1" opacity="1" d="M 293.5 500 L 298.5 506 L 293.5 500 Z " /><path fill="rgb(252,130,48)" stroke="rgb(252,130,48)" stroke-width="1" opacity="1" d="M 99.5 502 L 100 504.5 L 99 505.5 L 99 525.5 L 100 528.5 L 99 528.5 L 98 526.5 L 98 504.5 L 99.5 502 Z " /><path fill="rgb(252,130,48)" stroke="rgb(252,130,48)" stroke-width="1" opacity="1" d="M 300.5 506 L 314 518.5 L 309.5 515 L 300.5 506 Z " /><path fill="rgb(252,130,48)" stroke="rgb(252,130,48)" stroke-width="1" opacity="1" d="M 315.5 519 L 327 529.5 L 325.5 529 L 315.5 519 Z " /><path fill="rgb(252,130,48)" stroke="rgb(252,130,48)" stroke-width="1" opacity="1" d="M 569.5 521 L 545.5 546 L 503.5 583 L 506.5 579 Q 540 552 569.5 521 Z " /><path fill="rgb(252,130,48)" stroke="rgb(252,130,48)" stroke-width="1" opacity="1" d="M 99.5 530 L 105 541.5 L 110.5 548 L 121 554.5 L 119.5 555 L 108 548 L 102 538.5 L 99.5 530 Z " /><path fill="rgb(252,130,48)" stroke="rgb(252,130,48)" stroke-width="1" opacity="1" d="M 331.5 533 L 367 564.5 L 362.5 561 L 337.5 540 L 331.5 533 Z " /><path fill="rgb(252,130,48)" stroke="rgb(252,130,48)" stroke-width="1" opacity="1" d="M 125.5 556 L 128 556.5 L 125.5 557 L 125.5 556 Z " /><path fill="rgb(252,130,48)" stroke="rgb(252,130,48)" stroke-width="1" opacity="1" d="M 149.5 556 L 152 556.5 L 149.5 557 L 149.5 556 Z " /><path fill="rgb(252,130,48)" stroke="rgb(252,130,48)" stroke-width="1" opacity="1" d="M 129.5 557 L 148 557.5 L 129.5 558 L 129.5 557 Z " /><path fill="rgb(252,130,48)" stroke="rgb(252,130,48)" stroke-width="1" opacity="1" d="M 368.5 565 L 380 575.5 L 377.5 574 L 368.5 565 Z " /><path fill="rgb(252,130,48)" stroke="rgb(252,130,48)" stroke-width="1" opacity="1" d="M 384.5 579 L 404 596.5 L 399.5 593 Q 389.9 586.8 384.5 579 Z " /><path fill="rgb(252,130,48)" stroke="rgb(252,130,48)" stroke-width="1" opacity="1" d="M 500.5 584 L 497.5 588 L 500.5 584 Z " /><path fill="rgb(252,130,48)" stroke="rgb(252,130,48)" stroke-width="1" opacity="1" d="M 495.5 588 L 490.5 594 L 488.5 595 L 489.5 593 L 495.5 588 Z " /><path fill="rgb(252,130,48)" stroke="rgb(252,130,48)" stroke-width="1" opacity="1" d="M 485.5 596 L 483.5 599 L 485.5 596 Z " /><path fill="rgb(252,130,48)" stroke="rgb(252,130,48)" stroke-width="1" opacity="1" d="M 405.5 597 L 419 609.5 L 414.5 606 L 405.5 597 Z " /><path fill="rgb(252,130,48)" stroke="rgb(252,130,48)" stroke-width="1" opacity="1" d="M 481.5 599 L 478.5 603 L 476.5 604 L 477.5 602 L 481.5 599 Z " /><path fill="rgb(252,130,48)" stroke="rgb(252,130,48)" stroke-width="1" opacity="1" d="M 474.5 604 L 473.5 606 L 474.5 604 Z " /><path fill="rgb(252,130,48)" stroke="rgb(252,130,48)" stroke-width="1" opacity="1" d="M 471.5 606 L 470.5 608 L 471.5 606 Z " /><path fill="rgb(252,130,48)" stroke="rgb(252,130,48)" stroke-width="1" opacity="1" d="M 464.5 610 L 463.5 612 L 462 611.5 L 464.5 610 Z " /><path fill="rgb(252,130,48)" stroke="rgb(252,130,48)" stroke-width="1" opacity="1" d="M 422.5 612 L 425.5 616 L 422.5 612 Z " /><path fill="rgb(252,130,48)" stroke="rgb(252,130,48)" stroke-width="1" opacity="1" d="M 459.5 612 L 461 612.5 L 457.5 614 L 457.5 613 L 459.5 612 Z " /><path fill="rgb(252,130,48)" stroke="rgb(252,130,48)" stroke-width="1" opacity="1" d="M 454.5 614 L 456 614.5 L 450.5 616 L 450.5 615 L 454.5 614 Z " /><path fill="rgb(252,130,48)" stroke="rgb(252,130,48)" stroke-width="1" opacity="1" d="M 427.5 616 L 430 616.5 L 427.5 617 L 427.5 616 Z " /><path fill="rgb(252,130,48)" stroke="rgb(252,130,48)" stroke-width="1" opacity="1" d="M 435.5 617 L 441 617.5 L 435.5 618 L 435.5 617 Z " /><path fill="rgb(255,118,27)" stroke="rgb(255,118,27)" stroke-width="1" opacity="1" d="M 30.5 3 L 719.5 3 Q 731.9 6.1 739 14.5 L 747 30.5 L 747 719.5 Q 743.9 731.9 735.5 739 L 719.5 747 L 30.5 747 Q 18.1 743.9 11 735.5 L 3 719.5 L 3 30.5 Q 6.1 18.1 14.5 11 L 30.5 3 Z M 408 90 L 404 92 L 173 325 L 162 335 L 160 338 L 157 340 L 136 362 L 137 367 Q 179 400 219 437 L 223 439 L 414 606 L 426 616 L 436 618 L 454 616 Q 468 611 479 603 L 508 580 L 546 546 L 606 484 L 651 429 L 661 412 L 665 401 L 666 396 L 666 379 L 666 377 L 665 374 L 525 218 L 536 210 L 543 200 L 543 191 L 536 183 L 528 181 L 515 181 L 514 182 L 497 183 L 496 184 L 421 101 L 412 91 L 408 90 Z M 139 416 L 137 417 L 118 452 L 117 457 L 107 477 L 101 495 L 100 502 L 98 505 L 98 527 L 99 529 L 99 531 L 102 539 L 108 548 Q 116 555 130 558 L 148 558 L 165 551 L 174 541 L 179 527 L 179 505 L 177 502 L 176 494 L 173 485 L 162 459 L 141 418 Q 142 415 139 416 Z " /><path fill="rgb(255,118,27)" stroke="rgb(255,118,27)" stroke-width="1" opacity="1" d="M 407 106 Q 410.8 104.5 410 107.5 L 492 198.5 L 503 213 L 495.5 215 L 493.5 215 L 482.5 217 L 473.5 217 L 472.5 218 L 443.5 218 L 440.5 217 Q 436.8 216.3 436 218.5 L 437 222.5 L 435 228.5 L 436.5 230 L 477.5 230 L 478.5 229 L 486.5 229 L 501.5 226 L 512.5 222 L 637 361.5 L 629.5 362 L 628.5 361 L 166.5 361 L 165.5 362 L 153.5 362 L 204 310.5 L 222.5 291 L 306 208.5 L 382.5 131 L 386 128.5 L 388.5 125 L 403 111.5 Q 402.3 109.3 404.5 110 L 407 106 Z M 400 193 L 394 196 L 387 203 L 384 214 L 387 225 Q 392 233 404 235 L 417 232 Q 423 228 426 220 Q 428 207 423 202 Q 417 191 400 193 Z " /><path fill="rgb(255,118,27)" stroke="rgb(255,118,27)" stroke-width="1" opacity="1" d="M 516.5 193 L 518.5 193 Q 527.1 191.9 531 195.5 L 518.5 207 L 515.5 207 L 505 195.5 L 506.5 194 L 515.5 194 L 516.5 193 Z " /><path fill="rgb(15,5,0)" stroke="rgb(15,5,0)" stroke-width="1" opacity="0.00784313725490196" d="M 0 0 L 26 0.5 Q 13 4.5 6 14.5 L 0.5 26 L 0 0 Z " /><path fill="rgb(15,5,0)" stroke="rgb(15,5,0)" stroke-width="1" opacity="0.00784313725490196" d="M 724.5 0 L 750 0 L 750 25.5 L 749 25.5 Q 745.3 12.7 735.5 6 L 724.5 1 L 724.5 0 Z " /><path fill="rgb(15,5,0)" stroke="rgb(15,5,0)" stroke-width="1" opacity="0.00784313725490196" d="M 0.5 724 Q 4.5 737 14.5 744 L 23.5 749 L 27 749.5 L 0 750 L 0.5 724 Z " /><path fill="rgb(15,5,0)" stroke="rgb(15,5,0)" stroke-width="1" opacity="0.00784313725490196" d="M 749.5 724 L 750 750 L 724 749.5 Q 737.2 745.7 744 735.5 L 749.5 724 Z " /><path fill="rgb(233,92,0)" stroke="rgb(233,92,0)" stroke-width="1" opacity="0.9607843137254902" d="M 30.5 1 L 719.5 1 Q 733.5 4 741 13.5 Q 746.9 20.1 749 30.5 L 749 719.5 Q 746 733.5 736.5 741 Q 729.9 746.9 719.5 749 L 30.5 749 Q 16.5 746 9 736.5 Q 3.1 729.9 1 719.5 L 1 30.5 Q 4 16.5 13.5 9 Q 20.1 3.1 30.5 1 Z M 31 3 L 15 11 Q 6 18 3 31 L 3 720 L 11 736 Q 18 744 31 747 L 720 747 L 736 739 Q 744 732 747 720 L 747 31 L 739 15 Q 732 6 720 3 L 31 3 Z " /><path fill="rgb(228,89,0)" stroke="rgb(228,89,0)" stroke-width="1" opacity="0.9215686274509803" d="M 26.5 0 L 723.5 0 Q 736.7 4.3 744 14.5 L 750 26.5 L 750 723.5 Q 746 736 736.5 743 L 723.5 750 L 27.5 750 Q 13.4 746.1 6 735.5 L 0 723.5 L 0 26.5 Q 4.3 13.3 14.5 6 L 26.5 0 Z M 31 1 Q 20 3 14 9 Q 4 17 1 31 L 1 720 Q 3 730 9 737 Q 17 746 31 749 L 720 749 Q 730 747 737 741 Q 746 733 749 720 L 749 31 Q 747 20 741 14 Q 733 4 720 1 L 31 1 Z " /><path fill="rgb(254,230,213)" stroke="rgb(254,230,213)" stroke-width="1" opacity="1" d="M 406.5 91 L 410.5 91 L 421 101.5 L 427 108.5 L 419 101.5 L 410.5 92 L 406.5 92 L 145 353.5 L 138 361.5 L 138 365.5 L 139.5 368 Q 136 367 137 361.5 L 404 93.5 L 404 92 L 406.5 91 Z " /><path fill="rgb(254,230,213)" stroke="rgb(254,230,213)" stroke-width="1" opacity="1" d="M 407.5 104 L 418 113.5 L 424 120.5 L 415 112.5 L 408.5 105 L 354.5 158 L 407.5 104 Z " /><path fill="rgb(254,230,213)" stroke="rgb(254,230,213)" stroke-width="1" opacity="1" d="M 428.5 111 L 454 138.5 L 443 128.5 L 428.5 111 Z " /><path fill="rgb(254,230,213)" stroke="rgb(254,230,213)" stroke-width="1" opacity="1" d="M 424.5 122 L 430.5 129 L 424.5 122 Z " /><path fill="rgb(254,230,213)" stroke="rgb(254,230,213)" stroke-width="1" opacity="1" d="M 431.5 130 L 455 155.5 L 449 150.5 L 431.5 130 Z " /><path fill="rgb(254,230,213)" stroke="rgb(254,230,213)" stroke-width="1" opacity="1" d="M 454.5 140 L 460.5 147 L 454.5 140 Z " /><path fill="rgb(254,230,213)" stroke="rgb(254,230,213)" stroke-width="1" opacity="1" d="M 464.5 151 L 487 175.5 L 478 167.5 L 467 155.5 L 464.5 151 Z " /><path fill="rgb(254,230,213)" stroke="rgb(254,230,213)" stroke-width="1" opacity="1" d="M 458.5 160 L 489 193.5 L 483 188.5 L 458.5 160 Z " /><path fill="rgb(254,230,213)" stroke="rgb(254,230,213)" stroke-width="1" opacity="1" d="M 488.5 178 L 494.5 184 L 497 184.5 L 493.5 185 L 488.5 178 Z " /><path fill="rgb(254,230,213)" stroke="rgb(254,230,213)" stroke-width="1" opacity="1" d="M 509.5 182 L 517 182.5 L 509.5 183 L 509.5 182 Z " /><path fill="rgb(254,230,213)" stroke="rgb(254,230,213)" stroke-width="1" opacity="1" d="M 525.5 182 L 531 182.5 L 525.5 183 L 525.5 182 Z " /><path fill="rgb(254,230,213)" stroke="rgb(254,230,213)" stroke-width="1" opacity="1" d="M 501.5 183 L 506 183.5 L 501.5 184 L 501.5 183 Z " /><path fill="rgb(254,230,213)" stroke="rgb(254,230,213)" stroke-width="1" opacity="1" d="M 532.5 183 L 537 185.5 L 535.5 185 Q 531.7 184.8 532.5 183 Z " /><path fill="rgb(254,230,213)" stroke="rgb(254,230,213)" stroke-width="1" opacity="1" d="M 325.5 187 L 151.5 362 L 243 269.5 Q 242.3 267.3 244.5 268 L 301.5 210 L 305 207.5 L 306.5 205 L 325.5 187 Z " /><path fill="rgb(254,230,213)" stroke="rgb(254,230,213)" stroke-width="1" opacity="1" d="M 540.5 189 L 542 191.5 L 541 191.5 L 540.5 189 Z " /><path fill="rgb(254,230,213)" stroke="rgb(254,230,213)" stroke-width="1" opacity="1" d="M 515.5 192 L 527 192.5 L 515.5 193 L 515.5 192 Z " /><path fill="rgb(254,230,213)" stroke="rgb(254,230,213)" stroke-width="1" opacity="1" d="M 403.5 193 L 408 193.5 L 403.5 194 L 403.5 193 Z " /><path fill="rgb(254,230,213)" stroke="rgb(254,230,213)" stroke-width="1" opacity="1" d="M 504.5 193 L 511 193.5 L 504 194 L 515.5 208 L 518.5 207 L 517.5 209 L 515.5 209 L 511 204.5 L 502 194.5 L 504.5 193 Z " /><path fill="rgb(254,230,213)" stroke="rgb(254,230,213)" stroke-width="1" opacity="1" d="M 529.5 193 L 532 194.5 L 530.5 194 L 529.5 193 Z " /><path fill="rgb(254,230,213)" stroke="rgb(254,230,213)" stroke-width="1" opacity="1" d="M 542.5 193 L 543 196.5 L 542 196.5 L 542.5 193 Z " /><path fill="rgb(254,230,213)" stroke="rgb(254,230,213)" stroke-width="1" opacity="1" d="M 396.5 195 L 398 195.5 L 389 202.5 L 387.5 205 L 388 203.5 L 394.5 196 L 396.5 195 Z " /><path fill="rgb(254,230,213)" stroke="rgb(254,230,213)" stroke-width="1" opacity="1" d="M 415.5 196 L 422 201.5 L 424 205.5 L 423 205.5 L 417.5 198 L 415.5 196 Z " /><path fill="rgb(254,230,213)" stroke="rgb(254,230,213)" stroke-width="1" opacity="1" d="M 490.5 196 L 505 211.5 L 498 205.5 L 490.5 196 Z " /><path fill="rgb(254,230,213)" stroke="rgb(254,230,213)" stroke-width="1" opacity="1" d="M 531.5 196 L 531 197.5 L 527.5 202 L 520.5 207 L 521.5 205 L 530 198.5 L 531.5 196 Z " /><path fill="rgb(254,230,213)" stroke="rgb(254,230,213)" stroke-width="1" opacity="1" d="M 540.5 201 L 541 202.5 L 527.5 215 L 529.5 212 L 540 202.5 L 540.5 201 Z " /><path fill="rgb(254,230,213)" stroke="rgb(254,230,213)" stroke-width="1" opacity="1" d="M 385.5 210 L 386 217.5 L 385 217.5 L 385.5 210 Z " /><path fill="rgb(254,230,213)" stroke="rgb(254,230,213)" stroke-width="1" opacity="1" d="M 425.5 211 L 426 215.5 L 425 215.5 L 425.5 211 Z " /><path fill="rgb(254,230,213)" stroke="rgb(254,230,213)" stroke-width="1" opacity="1" d="M 502.5 213 L 505 213.5 L 502.5 214 L 502.5 213 Z " /><path fill="rgb(254,230,213)" stroke="rgb(254,230,213)" stroke-width="1" opacity="1" d="M 498.5 214 L 501 214.5 L 498.5 215 L 498.5 214 Z " /><path fill="rgb(254,230,213)" stroke="rgb(254,230,213)" stroke-width="1" opacity="1" d="M 493.5 215 L 496 215.5 L 493.5 216 L 493.5 215 Z " /><path fill="rgb(254,230,213)" stroke="rgb(254,230,213)" stroke-width="1" opacity="1" d="M 525.5 215 L 524 217.5 L 528 221.5 L 553 249.5 L 545 242.5 L 526 221.5 L 523 216 L 525.5 215 Z " /><path fill="rgb(254,230,213)" stroke="rgb(254,230,213)" stroke-width="1" opacity="1" d="M 487.5 216 L 490 216.5 L 487.5 217 L 487.5 216 Z " /><path fill="rgb(254,230,213)" stroke="rgb(254,230,213)" stroke-width="1" opacity="1" d="M 480.5 217 L 485 217.5 L 480.5 218 L 480.5 217 Z " /><path fill="rgb(254,230,213)" stroke="rgb(254,230,213)" stroke-width="1" opacity="1" d="M 439.5 218 L 449 218.5 L 439.5 219 L 439.5 218 Z " /><path fill="rgb(254,230,213)" stroke="rgb(254,230,213)" stroke-width="1" opacity="1" d="M 459.5 218 L 476 218.5 L 459.5 219 L 459.5 218 Z " /><path fill="rgb(254,230,213)" stroke="rgb(254,230,213)" stroke-width="1" opacity="1" d="M 387.5 222 L 390 225.5 L 388 224.5 L 387.5 222 Z " /><path fill="rgb(254,230,213)" stroke="rgb(254,230,213)" stroke-width="1" opacity="1" d="M 423.5 222 L 423 223.5 L 416.5 231 L 414.5 232 L 415.5 230 L 422 224.5 L 423.5 222 Z " /><path fill="rgb(254,230,213)" stroke="rgb(254,230,213)" stroke-width="1" opacity="1" d="M 508.5 222 L 511 222.5 L 505.5 224 L 505.5 223 L 508.5 222 Z " /><path fill="rgb(254,230,213)" stroke="rgb(254,230,213)" stroke-width="1" opacity="1" d="M 437.5 224 L 437 225.5 Q 435.9 228.8 438.5 228 L 438.5 229 Q 434.3 230.3 436 225.5 L 437.5 224 Z " /><path fill="rgb(254,230,213)" stroke="rgb(254,230,213)" stroke-width="1" opacity="1" d="M 500.5 224 L 504 224.5 L 500.5 225 L 500.5 224 Z " /><path fill="rgb(254,230,213)" stroke="rgb(254,230,213)" stroke-width="1" opacity="1" d="M 496.5 225 L 499 225.5 L 496.5 226 L 496.5 225 Z " /><path fill="rgb(254,230,213)" stroke="rgb(254,230,213)" stroke-width="1" opacity="1" d="M 516.5 225 L 522.5 232 L 516.5 225 Z " /><path fill="rgb(254,230,213)" stroke="rgb(254,230,213)" stroke-width="1" opacity="1" d="M 490.5 226 L 494 226.5 L 490.5 227 L 490.5 226 Z " /><path fill="rgb(254,230,213)" stroke="rgb(254,230,213)" stroke-width="1" opacity="1" d="M 390.5 227 L 391.5 229 L 390.5 227 Z " /><path fill="rgb(254,230,213)" stroke="rgb(254,230,213)" stroke-width="1" opacity="1" d="M 484.5 227 L 488 227.5 L 484.5 228 L 484.5 227 Z " /><path fill="rgb(254,230,213)" stroke="rgb(254,230,213)" stroke-width="1" opacity="1" d="M 474.5 228 L 481 228.5 L 474.5 229 L 474.5 228 Z " /><path fill="rgb(254,230,213)" stroke="rgb(254,230,213)" stroke-width="1" opacity="1" d="M 393.5 229 L 400 232.5 L 397.5 233 L 393.5 229 Z " /><path fill="rgb(254,230,213)" stroke="rgb(254,230,213)" stroke-width="1" opacity="1" d="M 448.5 229 L 460 229.5 L 448.5 230 L 448.5 229 Z " /><path fill="rgb(254,230,213)" stroke="rgb(254,230,213)" stroke-width="1" opacity="1" d="M 401.5 233 L 410 233.5 L 401.5 234 L 401.5 233 Z " /><path fill="rgb(254,230,213)" stroke="rgb(254,230,213)" stroke-width="1" opacity="1" d="M 523.5 233 L 548 259.5 L 541 253.5 L 523.5 233 Z " /><path fill="rgb(254,230,213)" stroke="rgb(254,230,213)" stroke-width="1" opacity="1" d="M 555.5 253 L 579 278.5 L 570 270.5 L 555.5 253 Z " /><path fill="rgb(254,230,213)" stroke="rgb(254,230,213)" stroke-width="1" opacity="1" d="M 549.5 262 L 581 296.5 L 574 290.5 L 549.5 262 Z " /><path fill="rgb(254,230,213)" stroke="rgb(254,230,213)" stroke-width="1" opacity="1" d="M 580.5 281 L 611 314.5 L 603 307.5 L 584 286.5 L 580.5 281 Z " /><path fill="rgb(254,230,213)" stroke="rgb(254,230,213)" stroke-width="1" opacity="1" d="M 582.5 299 L 605 323.5 L 599 318.5 L 582.5 299 Z " /><path fill="rgb(254,230,213)" stroke="rgb(254,230,213)" stroke-width="1" opacity="1" d="M 611.5 316 L 637 343.5 L 627 334.5 L 611.5 316 Z " /><path fill="rgb(254,230,213)" stroke="rgb(254,230,213)" stroke-width="1" opacity="1" d="M 608.5 328 L 614.5 335 L 608.5 328 Z " /><path fill="rgb(254,230,213)" stroke="rgb(254,230,213)" stroke-width="1" opacity="1" d="M 615.5 336 L 639 361.5 L 632 355.5 L 615.5 336 Z " /><path fill="rgb(254,230,213)" stroke="rgb(254,230,213)" stroke-width="1" opacity="1" d="M 637.5 345 L 643.5 352 L 637.5 345 Z " /><path fill="rgb(254,230,213)" stroke="rgb(254,230,213)" stroke-width="1" opacity="1" d="M 647.5 356 L 664 373.5 L 651 361.5 L 647.5 356 Z " /><path fill="rgb(254,230,213)" stroke="rgb(254,230,213)" stroke-width="1" opacity="1" d="M 264.5 361 L 378 361.5 L 264.5 362 L 264.5 361 Z " /><path fill="rgb(254,230,213)" stroke="rgb(254,230,213)" stroke-width="1" opacity="1" d="M 420.5 361 L 531 361.5 L 420.5 362 L 420.5 361 Z " /><path fill="rgb(254,230,213)" stroke="rgb(254,230,213)" stroke-width="1" opacity="1" d="M 141.5 368 L 143.5 371 L 141.5 368 Z " /><path fill="rgb(254,230,213)" stroke="rgb(254,230,213)" stroke-width="1" opacity="1" d="M 146.5 372 L 157 381.5 L 151.5 377 L 146.5 372 Z " /><path fill="rgb(254,230,213)" stroke="rgb(254,230,213)" stroke-width="1" opacity="1" d="M 665.5 383 L 666 390.5 L 665 390.5 L 665.5 383 Z " /><path fill="rgb(254,230,213)" stroke="rgb(254,230,213)" stroke-width="1" opacity="1" d="M 160.5 384 L 172 394.5 L 165.5 389 L 160.5 384 Z " /><path fill="rgb(254,230,213)" stroke="rgb(254,230,213)" stroke-width="1" opacity="1" d="M 664.5 394 L 665 397.5 L 664 397.5 L 664.5 394 Z " /><path fill="rgb(254,230,213)" stroke="rgb(254,230,213)" stroke-width="1" opacity="1" d="M 173.5 395 L 209 426.5 L 203.5 422 L 179.5 402 L 173.5 395 Z " /><path fill="rgb(254,230,213)" stroke="rgb(254,230,213)" stroke-width="1" opacity="1" d="M 662.5 403 L 663 404.5 L 661.5 407 L 661 405.5 L 662.5 403 Z " /><path fill="rgb(254,230,213)" stroke="rgb(254,230,213)" stroke-width="1" opacity="1" d="M 660.5 409 L 660 410.5 L 659.5 412 L 659 410.5 L 660.5 409 Z " /><path fill="rgb(254,230,213)" stroke="rgb(254,230,213)" stroke-width="1" opacity="1" d="M 658.5 413 L 658 414.5 L 656.5 418 L 656 416.5 L 658.5 413 Z " /><path fill="rgb(254,230,213)" stroke="rgb(254,230,213)" stroke-width="1" opacity="1" d="M 138.5 417 L 141 418.5 L 161 458.5 L 172 484.5 L 172 487.5 L 175 493.5 L 176 501.5 L 178 504.5 L 178 526.5 L 172 541.5 L 164.5 550 Q 158.1 555.1 148.5 557 L 128.5 557 Q 115.3 554.2 108 545.5 L 100 530.5 L 99 525.5 L 99 505.5 L 112 467.5 L 131 428.5 L 138.5 417 Z M 137 419 L 115 464 L 107 483 L 102 503 L 100 506 L 100 526 L 107 543 Q 114 553 130 556 L 148 556 L 163 550 Q 173 543 176 528 L 176 504 L 171 486 L 160 462 L 159 457 L 146 431 L 140 422 Q 141 417 137 419 Z " /><path fill="rgb(254,230,213)" stroke="rgb(254,230,213)" stroke-width="1" opacity="1" d="M 655.5 419 L 654 421.5 L 652.5 424 L 653 422.5 L 655.5 419 Z " /><path fill="rgb(254,230,213)" stroke="rgb(254,230,213)" stroke-width="1" opacity="1" d="M 651.5 425 L 650.5 427 L 651.5 425 Z " /><path fill="rgb(254,230,213)" stroke="rgb(254,230,213)" stroke-width="1" opacity="1" d="M 649.5 428 L 647 431.5 L 644.5 435 L 646 432.5 L 649.5 428 Z " /><path fill="rgb(254,230,213)" stroke="rgb(254,230,213)" stroke-width="1" opacity="1" d="M 213.5 430 L 225 440.5 L 218.5 435 L 213.5 430 Z " /><path fill="rgb(254,230,213)" stroke="rgb(254,230,213)" stroke-width="1" opacity="1" d="M 643.5 436 L 641 439.5 L 625.5 459 L 626 457.5 L 643.5 436 Z " /><path fill="rgb(254,230,213)" stroke="rgb(254,230,213)" stroke-width="1" opacity="1" d="M 227.5 442 L 262 472.5 L 256.5 468 L 231.5 447 L 227.5 442 Z " /><path fill="rgb(254,230,213)" stroke="rgb(254,230,213)" stroke-width="1" opacity="1" d="M 622.5 462 L 619 466.5 L 611.5 475 L 617 468.5 L 622.5 462 Z " /><path fill="rgb(254,230,213)" stroke="rgb(254,230,213)" stroke-width="1" opacity="1" d="M 265.5 475 L 278 486.5 L 270.5 480 L 265.5 475 Z " /><path fill="rgb(254,230,213)" stroke="rgb(254,230,213)" stroke-width="1" opacity="1" d="M 610.5 476 L 605.5 482 L 610.5 476 Z " /><path fill="rgb(254,230,213)" stroke="rgb(254,230,213)" stroke-width="1" opacity="1" d="M 604.5 483 L 596 492.5 L 548.5 542 L 525.5 563 L 532.5 555 L 578 511.5 L 604.5 483 Z " /><path fill="rgb(254,230,213)" stroke="rgb(254,230,213)" stroke-width="1" opacity="1" d="M 279.5 487 L 315 518.5 L 309.5 514 L 284.5 493 L 279.5 487 Z " /><path fill="rgb(254,230,213)" stroke="rgb(254,230,213)" stroke-width="1" opacity="1" d="M 318.5 521 L 331 532.5 L 323.5 526 L 318.5 521 Z " /><path fill="rgb(254,230,213)" stroke="rgb(254,230,213)" stroke-width="1" opacity="1" d="M 332.5 533 L 352 550.5 L 346.5 546 Q 337.3 540.3 332.5 533 Z " /><path fill="rgb(254,230,213)" stroke="rgb(254,230,213)" stroke-width="1" opacity="1" d="M 353.5 551 L 368 564.5 L 361.5 559 L 353.5 551 Z " /><path fill="rgb(254,230,213)" stroke="rgb(254,230,213)" stroke-width="1" opacity="1" d="M 521.5 565 L 515.5 572 L 486.5 596 L 490.5 591 L 521.5 565 Z " /><path fill="rgb(254,230,213)" stroke="rgb(254,230,213)" stroke-width="1" opacity="1" d="M 370.5 566 L 390 583.5 L 384.5 579 Q 375.5 573.4 370.5 566 Z " /><path fill="rgb(254,230,213)" stroke="rgb(254,230,213)" stroke-width="1" opacity="1" d="M 391.5 584 L 405 596.5 L 399.5 592 L 391.5 584 Z " /><path fill="rgb(254,230,213)" stroke="rgb(254,230,213)" stroke-width="1" opacity="1" d="M 484.5 596 L 482.5 599 L 484.5 596 Z " /><path fill="rgb(254,230,213)" stroke="rgb(254,230,213)" stroke-width="1" opacity="1" d="M 406.5 597 L 422 611.5 L 414.5 605 L 406.5 597 Z " /><path fill="rgb(254,230,213)" stroke="rgb(254,230,213)" stroke-width="1" opacity="1" d="M 480.5 599 L 478.5 602 L 475.5 604 L 477.5 601 L 480.5 599 Z " /><path fill="rgb(254,230,213)" stroke="rgb(254,230,213)" stroke-width="1" opacity="1" d="M 473.5 604 L 472.5 606 L 473.5 604 Z " /><path fill="rgb(254,230,213)" stroke="rgb(254,230,213)" stroke-width="1" opacity="1" d="M 470.5 606 L 469.5 608 L 460.5 612 L 460.5 611 L 470.5 606 Z " /><path fill="rgb(254,230,213)" stroke="rgb(254,230,213)" stroke-width="1" opacity="1" d="M 457.5 612 L 459 612.5 L 455.5 614 L 455.5 613 L 457.5 612 Z " /><path fill="rgb(254,230,213)" stroke="rgb(254,230,213)" stroke-width="1" opacity="1" d="M 430.5 616 L 438 616.5 L 430.5 617 L 430.5 616 Z " /><path fill="rgb(254,230,213)" stroke="rgb(254,230,213)" stroke-width="1" opacity="1" d="M 439.5 616 L 446 616.5 L 439.5 617 L 439.5 616 Z " /><path fill="rgb(255,255,255)" stroke="rgb(255,255,255)" stroke-width="1" opacity="1" d="M 406.5 92 L 410.5 92 L 419 100.5 L 493.5 185 L 524.5 182 Q 526 184.5 531.5 183 L 540 188.5 Q 542.8 191.2 542 197.5 L 540 202.5 L 530.5 212 L 523 216 L 534 230.5 L 664 374.5 Q 666.5 382 665 393.5 L 661 408.5 L 656 418.5 L 644 435.5 Q 602.7 488.7 554.5 535 Q 517.2 572.2 474.5 604 L 454.5 614 L 438.5 617 L 437.5 616 L 425.5 615 L 374.5 569 L 138 365.5 L 138 361.5 L 145 353.5 L 406.5 92 Z M 408 104 L 354 159 L 307 205 L 305 208 L 302 210 L 245 268 Q 242 267 243 270 L 152 362 L 378 362 L 379 361 L 420 361 L 421 362 L 639 362 L 515 224 L 515 222 L 513 221 L 505 224 L 484 228 L 475 228 L 474 229 L 442 229 L 440 229 L 437 228 L 438 225 L 437 223 L 437 221 L 439 218 L 440 219 L 476 219 L 478 219 L 505 214 L 505 212 L 499 205 L 418 114 L 408 104 Z M 514 192 L 513 193 L 505 193 L 502 195 L 516 209 L 518 209 L 528 202 Q 532 200 532 195 Q 527 190 516 192 L 514 192 Z " /><path fill="rgb(255,255,255)" stroke="rgb(255,255,255)" stroke-width="1" opacity="1" d="M 401.5 194 Q 416 193 421 201.5 Q 426.3 206.2 425 217.5 Q 422.9 225.9 416.5 230 Q 411.7 234.7 400.5 233 L 390 226.5 L 386 218.5 L 386 208.5 Q 388.6 201.1 394.5 197 L 401.5 194 Z " /><path fill="rgb(255,255,255)" stroke="rgb(255,255,255)" stroke-width="1" opacity="1" d="M 137 419 Q 141.1 417.3 140 421.5 L 146 430.5 L 159 456.5 L 160 461.5 L 171 485.5 L 176 503.5 L 176 527.5 Q 173.3 542.8 162.5 550 L 147.5 556 L 129.5 556 Q 114.2 553.3 107 542.5 L 100 525.5 L 100 505.5 L 102 502.5 L 107 482.5 L 115 463.5 L 137 419 Z " /></svg>